{"title":"X Men Days of Future Past 2014 BDRip 480p x264 Quad Audio [Hindi","uid":11155301,"size":667783841,"categoryP":"video","categoryS":"movies","magnet":"?xt=urn:btih:f6994dace23b4510f6f801007ad4ff21ca84636e&amp;dn=X+Men+Days+of+Future+Past+2014+BDRip+480p+x264+Quad+Audio+%5BHindi&amp;tr=udp%3A%2F%2Ftracker.openbittorrent.com%3A80&amp;tr=udp%3A%2F%2Fopen.demonii.com%3A1337&amp;tr=udp%3A%2F%2Ftracker.coppersurfer.tk%3A6969&amp;tr=udp%3A%2F%2Fexodus.desync.com%3A6969","seeders":1,"leechers":0,"uploader":"Dj_YsB","files":9,"time":1412401732,"description":"X Men Days of Future Past 2014 BDRip 480p x264 Quad Audio [Hindi-Tamil-Telugu-Eng] YsB TeaM FL\n &lt;a href=&quot;\nhttp://i.imgur.com/zX488Jo.jpg&quot; rel=&quot;nofollow&quot; target=&quot;_NEW&quot;&gt;\nhttp://i.imgur.com/zX488Jo.jpg&lt;/a&gt;\n\nGeneral\nComplete name                            : X Men Days of Future Past 2014 BDRip 480p x264 Quad Audio [Hindi-Tamil-Telugu-Eng] YsB TeaM FL.mkv\nFormat                                   : Matroska\nFormat version                           : Version 4 / Version 2\nFile size                                : 630 MiB\nDuration                                 : 2h 11mn\nOverall bit rate                         : 669 Kbps\nMovie name                               : X Men Days of Future Past 2014 BDRip 480p x264 Quad Audio [Hindi-Tamil-Telugu-Eng] YsB TeaM FL\n\nVideo\nID                                       : 1\nFormat                                   : AVC\nDuration                                 : 2h 11mn\nBit rate                                 : 400 Kbps\nWidth                                    : 848 pixels\nHeight                                   : 352 pixels\nFrame rate                               : 23.976 fps\nStream size                              : 376 MiB (60%)\nTitle                                    : YsB TeaM FL\n\n\nAudio #1\nID                                       : 2\nFormat                                   : AC-3\nDuration                                 : 2h 11mn\nBit rate mode                            : Constant\nBit rate                                 : 64.0 Kbps\nChannel(s)                               : 2 channels\nChannel positions                        : Front: L R\nSampling rate                            : 48.0 KHz\nStream size                              : 60.2 MiB (10%)\nTitle                                    : YsB TeaM FL\nLanguage                                 : Hindi\n\nAudio #2\nID                                       : 3\nFormat                                   : AC-3\nDuration                                 : 2h 11mn\nBit rate mode                            : Constant\nBit rate                                 : 64.0 Kbps\nChannel(s)                               : 2 channels\nChannel positions                        : Front: L R\nSampling rate                            : 48.0 KHz\nStream size                              : 60.2 MiB (10%)\nTitle                                    : YsB TeaM FL\nLanguage                                 : Tamil\n\nAudio #3\nID                                       : 4\nFormat                                   : AC-3\nDuration                                 : 2h 11mn\nBit rate mode                            : Constant\nBit rate                                 : 64.0 Kbps\nChannel(s)                               : 2 channels\nChannel positions                        : Front: L R\nSampling rate                            : 48.0 KHz\nStream size                              : 60.2 MiB (10%)\nTitle                                    : YsB TeaM FL\nLanguage                                 : Telugu\n\nAudio #4\nID                                       : 5\nFormat                                   : AC-3\nDuration                                 : 2h 11mn\nBit rate mode                            : Constant\nBit rate                                 : 64.0 Kbps\nChannel(s)                               : 2 channels\nChannel positions                        : Front: L R\nSampling rate                            : 48.0 KHz\nStream size                              : 60.2 MiB (10%)\nTitle                                    : YsB TeaM FL\nLanguage                                 : English\n\nText #1\nID                                       : 6\nFormat                                   : PGS\nMuxing mode                              : zlib\nCodec ID                                 : S_HDMV/PGS\nCodec ID/Info                            : The same subtitle format used on BDs/HD-DVDs\nTitle                                    : YsB TeaM FL\nLanguage                                 : English\nDefault                                  : No\nForced                                   : No\n\nText #2\nID                                       : 7\nFormat                                   : PGS\nMuxing mode                              : zlib\nCodec ID                                 : S_HDMV/PGS\nCodec ID/Info                            : The same subtitle format used on BDs/HD-DVDs\nTitle                                    : YsB TeaM FL\nLanguage                                 : English\nDefault                                  : No\nForced                                   : No\n\nMenu\n00:00:00.000                             : en:Chapter 1\n00:03:33.338                             : en:Chapter 2\n00:08:00.688                             : en:Chapter 3\n00:10:28.628                             : en:Chapter 4\n00:13:58.045                             : en:Chapter 5\n00:17:02.021                             : en:Chapter 6\n00:20:16.089                             : en:Chapter 7\n00:22:11.330                             : en:Chapter 8\n00:26:37.887                             : en:Chapter 9\n00:30:32.038                             : en:Chapter 10\n00:34:29.776                             : en:Chapter 11\n00:36:00.992                             : en:Chapter 12\n00:38:18.087                             : en:Chapter 13\n00:40:37.101                             : en:Chapter 14\n00:45:53.792                             : en:Chapter 15\n00:48:53.847                             : en:Chapter 16\n00:51:58.156                             : en:Chapter 17\n00:54:43.113                             : en:Chapter 18\n00:57:51.426                             : en:Chapter 19\n01:00:48.186                             : en:Chapter 20\n01:03:26.594                             : en:Chapter 21\n01:07:09.567                             : en:Chapter 22\n01:09:43.596                             : en:Chapter 23\n01:13:11.470                             : en:Chapter 24\n01:15:31.860                             : en:Chapter 25\n01:17:27.726                             : en:Chapter 26\n01:19:30.098                             : en:Chapter 27\n01:24:50.710                             : en:Chapter 28\n01:26:58.254                             : en:Chapter 29\n01:31:04.250                             : en:Chapter 30\n01:34:03.679                             : en:Chapter 31\n01:37:33.180                             : en:Chapter 32\n01:41:54.817                             : en:Chapter 33\n01:44:52.995                             : en:Chapter 34\n01:47:19.808                             : en:Chapter 35\n01:51:29.766                             : en:Chapter 36\n01:56:42.745                             : en:Chapter 37\n02:00:12.413                             : en:Chapter 38\n02:02:34.972                             : en:Chapter 39\n02:10:31.907                             : en:Chapter 40\n\n &lt;a href=&quot;\nhttp://i.imgur.com/VxSDwtN.jpg&quot; rel=&quot;nofollow&quot; target=&quot;_NEW&quot;&gt;\nhttp://i.imgur.com/VxSDwtN.jpg&lt;/a&gt; &lt;a href=&quot;\nhttp://i.imgur.com/A2EtpIz.jpg&quot; rel=&quot;nofollow&quot; target=&quot;_NEW&quot;&gt;\nhttp://i.imgur.com/A2EtpIz.jpg&lt;/a&gt; &lt;a href=&quot;\nhttp://i.imgur.com/SvoL8em.jpg&quot; rel=&quot;nofollow&quot; target=&quot;_NEW&quot;&gt;\nhttp://i.imgur.com/SvoL8em.jpg&lt;/a&gt;","torrent":{"xt":"urn:btih:f6994dace23b4510f6f801007ad4ff21ca84636e","amp;dn":"X+Men+Days+of+Future+Past+2014+BDRip+480p+x264+Quad+Audio+%5BHindi","amp;tr":["udp%3A%2F%2Ftracker.openbittorrent.com%3A80","udp%3A%2F%2Fopen.demonii.com%3A1337","udp%3A%2F%2Ftracker.coppersurfer.tk%3A6969","udp%3A%2F%2Fexodus.desync.com%3A6969"],"infoHash":"f6994dace23b4510f6f801007ad4ff21ca84636e","infoHashBuffer":{"type":"Buffer","data":[246,153,77,172,226,59,69,16,246,248,1,0,122,212,255,33,202,132,99,110]},"announce":[],"urlList":[]}}